<mxfile host="app.diagrams.net" agent="Mozilla/5.0 (Windows NT 10.0; Win64; x64) AppleWebKit/537.36 (KHTML, like Gecko) Chrome/131.0.0.0 Safari/537.36" version="25.0.1">
  <diagram name="หน้า-1" id="SjkzUpFa6r4vaWVzfc55">
    <mxGraphModel dx="1050" dy="530" grid="1" gridSize="10" guides="1" tooltips="1" connect="1" arrows="1" fold="1" page="1" pageScale="1" pageWidth="827" pageHeight="1169" math="0" shadow="0">
      <root>
        <mxCell id="0" />
        <mxCell id="1" parent="0" />
        <mxCell id="O1-gVv3hLPr10iQpcTfD-3" value="" style="edgeStyle=orthogonalEdgeStyle;rounded=0;orthogonalLoop=1;jettySize=auto;html=1;" edge="1" parent="1" source="O1-gVv3hLPr10iQpcTfD-1" target="O1-gVv3hLPr10iQpcTfD-2">
          <mxGeometry relative="1" as="geometry" />
        </mxCell>
        <mxCell id="O1-gVv3hLPr10iQpcTfD-1" value="Start" style="ellipse;whiteSpace=wrap;html=1;" vertex="1" parent="1">
          <mxGeometry x="354" y="10" width="120" height="80" as="geometry" />
        </mxCell>
        <mxCell id="O1-gVv3hLPr10iQpcTfD-5" value="" style="edgeStyle=orthogonalEdgeStyle;rounded=0;orthogonalLoop=1;jettySize=auto;html=1;" edge="1" parent="1" source="O1-gVv3hLPr10iQpcTfD-2" target="O1-gVv3hLPr10iQpcTfD-4">
          <mxGeometry relative="1" as="geometry" />
        </mxCell>
        <mxCell id="O1-gVv3hLPr10iQpcTfD-2" value="Input num" style="shape=parallelogram;perimeter=parallelogramPerimeter;whiteSpace=wrap;html=1;fixedSize=1;" vertex="1" parent="1">
          <mxGeometry x="354" y="180" width="120" height="60" as="geometry" />
        </mxCell>
        <mxCell id="O1-gVv3hLPr10iQpcTfD-7" value="" style="edgeStyle=orthogonalEdgeStyle;rounded=0;orthogonalLoop=1;jettySize=auto;html=1;" edge="1" parent="1" source="O1-gVv3hLPr10iQpcTfD-4" target="O1-gVv3hLPr10iQpcTfD-6">
          <mxGeometry relative="1" as="geometry" />
        </mxCell>
        <mxCell id="O1-gVv3hLPr10iQpcTfD-4" value="1(1) + 1(2) + 2(3) + 3(4) + 5(5) + ... + N(num)" style="whiteSpace=wrap;html=1;" vertex="1" parent="1">
          <mxGeometry x="354" y="320" width="120" height="60" as="geometry" />
        </mxCell>
        <mxCell id="O1-gVv3hLPr10iQpcTfD-9" value="" style="edgeStyle=orthogonalEdgeStyle;rounded=0;orthogonalLoop=1;jettySize=auto;html=1;" edge="1" parent="1" source="O1-gVv3hLPr10iQpcTfD-6" target="O1-gVv3hLPr10iQpcTfD-8">
          <mxGeometry relative="1" as="geometry" />
        </mxCell>
        <mxCell id="O1-gVv3hLPr10iQpcTfD-6" value="Output 1(1) + 1(2) + 2(3) + 3(4) + 5(5) + ... + N(num)&amp;nbsp;" style="shape=parallelogram;perimeter=parallelogramPerimeter;whiteSpace=wrap;html=1;fixedSize=1;" vertex="1" parent="1">
          <mxGeometry x="331" y="460" width="166" height="60" as="geometry" />
        </mxCell>
        <mxCell id="O1-gVv3hLPr10iQpcTfD-11" value="" style="edgeStyle=orthogonalEdgeStyle;rounded=0;orthogonalLoop=1;jettySize=auto;html=1;" edge="1" parent="1" source="O1-gVv3hLPr10iQpcTfD-8" target="O1-gVv3hLPr10iQpcTfD-10">
          <mxGeometry relative="1" as="geometry" />
        </mxCell>
        <mxCell id="O1-gVv3hLPr10iQpcTfD-8" value="Output sum(num)" style="shape=parallelogram;perimeter=parallelogramPerimeter;whiteSpace=wrap;html=1;fixedSize=1;" vertex="1" parent="1">
          <mxGeometry x="354" y="600" width="120" height="60" as="geometry" />
        </mxCell>
        <mxCell id="O1-gVv3hLPr10iQpcTfD-10" value="End" style="ellipse;whiteSpace=wrap;html=1;" vertex="1" parent="1">
          <mxGeometry x="354" y="740" width="120" height="80" as="geometry" />
        </mxCell>
      </root>
    </mxGraphModel>
  </diagram>
</mxfile>
